<svg xmlns="http://www.w3.org/2000/svg" viewBox="0 0 638.15 583.51"><defs><style>.cls-1{fill:none;}</style></defs><title>hh-logo-black-small</title><g id="Layer_2" data-name="Layer 2"><g id="Layer_4" data-name="Layer 4"><polygon class="cls-1" points="97.74 338.99 97.74 330.2 80.89 322.5 80.89 331.29 97.74 338.99"/><polygon class="cls-1" points="97.74 233.42 97.74 223.78 80.89 235.13 80.89 244.78 97.74 233.42"/><polygon class="cls-1" points="80.89 252.22 80.89 261.01 97.74 253.31 97.74 244.52 80.89 252.22"/><polygon class="cls-1" points="538.08 198.52 529.19 190.4 525.7 191.68 525.7 198.04 538.08 209.36 538.08 198.52"/><path class="cls-1" d="M219.68,483.47V292.26a3.85,3.85,0,0,1,0-.5,4.23,4.23,0,0,1,0-.5V47.36l-52.21,60.09V258.51l-8,1.82L123,268.66l-4.57,1-20.7,4.77v-8.25l-16.85,3.85v43.35l16.85,3.85V309l21.91,5.05,3.16.72,36.66,8.38,8,1.83V476.06l52.21,60.09V483.47Z"/><polygon class="cls-1" points="525.7 360 525.7 369.65 538.08 361.31 538.08 351.66 525.7 360"/><polygon class="cls-1" points="97.74 200.66 80.89 216.06 80.89 226.9 97.74 211.49 97.74 200.66"/><polygon class="cls-1" points="80.89 338.74 80.89 348.38 97.74 359.74 97.74 350.09 80.89 338.74"/><polygon class="cls-1" points="97.74 372.02 80.89 356.61 80.89 367.45 97.74 382.86 97.74 372.02"/><polygon class="cls-1" points="538.08 252.25 538.08 243.45 525.7 237.79 525.7 246.59 538.08 252.25"/><polygon class="cls-1" points="538.08 231.85 538.08 222.2 525.7 213.86 525.7 223.51 538.08 231.85"/><polygon class="cls-1" points="525.7 385.47 525.7 391.33 529.58 392.75 538.08 384.99 538.08 374.15 525.7 385.47"/><polygon class="cls-1" points="525.7 336.92 525.7 345.72 538.08 340.06 538.08 331.26 525.7 336.92"/><polygon class="cls-1" points="314.83 154.1 262.62 177.96 262.62 228.56 314.83 216.63 314.83 154.1"/><polygon class="cls-1" points="262.62 470.82 262.62 522.72 314.83 570.44 314.83 505.99 262.62 470.82"/><polygon class="cls-1" points="80.89 331.29 80.89 338.74 97.74 350.09 97.74 338.99 80.89 331.29"/><polygon class="cls-1" points="97.74 191.95 80.89 209.68 80.89 216.06 97.74 200.66 97.74 191.95"/><polygon class="cls-1" points="97.74 330.2 97.74 319.55 97.74 317.28 80.89 313.43 80.89 322.5 97.74 330.2"/><path class="cls-1" d="M126.12,204.66l33.35-22.47V155.07L125,186.6a4,4,0,0,1,1.14,2.79Z"/><polygon class="cls-1" points="46.55 315.6 72.89 333.35 72.89 327.64 46.55 315.6"/><polygon class="cls-1" points="570.93 344.12 591.52 325.3 570.93 339.17 570.93 344.12"/><polygon class="cls-1" points="570.93 302.1 598.69 295.76 570.93 295.76 570.93 302.1"/><polygon class="cls-1" points="159.47 358.41 159.47 331.38 126.12 323.76 126.12 343.17 159.47 358.41"/><polygon class="cls-1" points="72.89 303.39 72.89 295.76 39.46 295.76 72.89 303.39"/><polygon class="cls-1" points="374.99 112.33 374.99 60.3 322.83 12.62 322.83 77.18 374.99 112.33"/><polygon class="cls-1" points="72.89 318.84 72.89 311.6 41.2 304.36 72.89 318.84"/><polygon class="cls-1" points="126.12 259.75 159.47 252.13 159.47 225.1 126.12 240.34 126.12 259.75"/><polygon class="cls-1" points="314.83 77.52 314.83 13.07 262.62 60.79 262.62 112.69 314.83 77.52"/><polygon class="cls-1" points="72.89 234.21 46.63 258.21 72.89 240.52 72.89 234.21"/><polygon class="cls-1" points="517.7 234.14 517.7 218.12 478.14 191.47 478.14 216.06 517.7 234.14"/><polygon class="cls-1" points="374.99 295.76 322.83 295.76 322.83 358.79 374.99 346.87 374.99 295.76"/><polygon class="cls-1" points="538.08 243.45 538.08 231.85 525.7 223.51 525.7 237.79 538.08 243.45"/><path class="cls-1" d="M126.12,378.86v15.27a4,4,0,0,1-1.14,2.79l34.49,31.52V401.32Z"/><polygon class="cls-1" points="322.83 506.33 322.83 570.89 374.99 523.22 374.99 471.19 322.83 506.33"/><polygon class="cls-1" points="72.89 250.17 46.55 267.91 72.89 255.88 72.89 250.17"/><polygon class="cls-1" points="538.08 361.31 525.7 369.65 525.7 385.47 538.08 374.15 538.08 361.31"/><polygon class="cls-1" points="478.14 401.69 478.14 428.93 517.7 392.78 517.7 375.04 478.14 401.69"/><polygon class="cls-1" points="46.63 325.3 72.89 349.3 72.89 342.99 46.63 325.3"/><polygon class="cls-1" points="525.7 345.72 525.7 360 538.08 351.66 538.08 340.06 525.7 345.72"/><polygon class="cls-1" points="97.74 223.78 97.74 211.49 80.89 226.9 80.89 235.13 97.74 223.78"/><polygon class="cls-1" points="126.12 369.21 159.47 391.68 159.47 367.2 126.12 351.96 126.12 369.21"/><polygon class="cls-1" points="314.83 358.68 314.83 295.76 262.62 295.76 262.62 346.75 314.83 358.68"/><polygon class="cls-1" points="80.89 367.45 80.89 373.83 97.74 391.56 97.74 382.86 80.89 367.45"/><polygon class="cls-1" points="570.93 316.25 596.95 304.36 570.93 310.31 570.93 316.25"/><polygon class="cls-1" points="97.74 359.74 80.89 348.38 80.89 356.61 97.74 372.02 97.74 359.74"/><polygon class="cls-1" points="525.7 320.64 525.7 336.92 538.08 331.26 538.08 317.81 525.7 320.64"/><polygon class="cls-1" points="262.62 414.35 262.62 461.18 314.83 496.35 314.83 438.2 262.62 414.35"/><polygon class="cls-1" points="591.52 258.21 570.93 239.39 570.93 244.34 591.52 258.21"/><polygon class="cls-1" points="126.12 231.55 159.47 216.31 159.47 191.83 126.12 214.3 126.12 231.55"/><polygon class="cls-1" points="570.93 273.21 596.95 279.15 570.93 267.26 570.93 273.21"/><polygon class="cls-1" points="97.74 233.42 80.89 244.78 80.89 252.22 97.74 244.52 97.74 233.42"/><polygon class="cls-1" points="591.6 267.91 570.93 253.98 570.93 258.46 591.6 267.91"/><polygon class="cls-1" points="322.83 438.43 322.83 496.68 374.99 461.54 374.99 414.59 322.83 438.43"/><polygon class="cls-1" points="538.08 395.86 538.08 384.99 529.58 392.75 538.08 395.86"/><polygon class="cls-1" points="538.08 222.2 538.08 209.36 525.7 198.04 525.7 213.86 538.08 222.2"/><polygon class="cls-1" points="538.08 265.7 538.08 252.25 525.7 246.59 525.7 262.87 538.08 265.7"/><polygon class="cls-1" points="374.99 228.43 374.99 177.71 322.83 153.88 322.83 216.51 374.99 228.43"/><polygon class="cls-1" points="517.7 208.47 517.7 190.73 478.14 154.58 478.14 181.82 517.7 208.47"/><polygon class="cls-1" points="485.47 253.68 517.7 261.04 517.7 242.93 478.14 224.85 478.14 251.65 485.47 253.68"/><polygon class="cls-1" points="374.99 236.64 322.83 224.72 322.83 287.76 374.99 287.76 374.99 236.64"/><polygon class="cls-1" points="570.93 329.53 591.61 315.6 570.93 325.05 570.93 329.53"/><polygon class="cls-1" points="262.62 236.76 262.62 287.76 314.83 287.76 314.83 224.83 262.62 236.76"/><polygon class="cls-1" points="374.99 168.92 374.99 121.97 322.83 86.83 322.83 145.08 374.99 168.92"/><polygon class="cls-1" points="314.83 145.31 314.83 87.17 262.62 122.34 262.62 169.16 314.83 145.31"/><polygon class="cls-1" points="97.74 253.31 80.89 261.01 80.89 270.08 97.74 266.23 97.74 263.96 97.74 253.31"/><polygon class="cls-1" points="322.83 367 322.83 429.64 374.99 405.8 374.99 355.08 322.83 367"/><polygon class="cls-1" points="72.89 287.76 72.89 280.12 39.46 287.76 72.89 287.76"/><polygon class="cls-1" points="538.08 187.15 529.19 190.4 538.08 198.52 538.08 187.15"/><polygon class="cls-1" points="478.14 331.51 478.14 358.66 517.7 340.58 517.7 322.47 478.14 331.51"/><polygon class="cls-1" points="478.14 367.45 478.14 392.04 517.7 365.39 517.7 349.38 478.14 367.45"/><polygon class="cls-1" points="262.62 354.96 262.62 405.55 314.83 429.41 314.83 366.88 262.62 354.96"/><polygon class="cls-1" points="72.89 271.91 72.89 264.67 41.2 279.15 72.89 271.91"/><polygon class="cls-1" points="570.93 287.76 598.69 287.76 570.93 281.41 570.93 287.76"/><path d="M638.15,291.69v-.12a.5.5,0,0,0,0-.12c0-.07,0-.14,0-.2l0-.15a.22.22,0,0,0,0-.08v0s0-.08,0-.13a.85.85,0,0,0,0-.17c0-.06,0-.1,0-.15a.93.93,0,0,1,0-.13l0-.12-.06-.14a1,1,0,0,0-.07-.15s0-.09-.07-.14l-.06-.11-.06-.1-.09-.14-.12-.17-.06-.07v0l-.06-.06-.08-.1-.07-.08,0,0h0l-.14-.13,0,0,0,0-65.88-60.22v-21a4,4,0,0,0-1.1-2.75L545,178.67l-.09-.07a3.45,3.45,0,0,0-.28-.26l-.15-.12-.09-.07-.23-.14-.15-.09-.49-.23-.07,0a3.66,3.66,0,0,0-.44-.13l-.17,0a2.5,2.5,0,0,0-.38-.06h-.73a4.85,4.85,0,0,0-.53.08h0l-.47.14-18.16,6.65-44.4-40.58v-38a4,4,0,0,0-1-2.62L417,33.79a.46.46,0,0,0-.07-.07,6,6,0,0,0-.45-.43l-.1-.07a4,4,0,0,0-.48-.32l-.09,0-.19-.09a4.09,4.09,0,0,0-.49-.18l-.16-.05a3.79,3.79,0,0,0-.66-.11h-.15a5.24,5.24,0,0,0-.56,0l-.18,0a3.58,3.58,0,0,0-.65.14l-.12,0a3.54,3.54,0,0,0-.53.23l-.17.09-.13.07L379.58,53.65,322,1.05a3.94,3.94,0,0,0-2.69-1h-.5a3.87,3.87,0,0,0-.77.08l-.3.08a3.09,3.09,0,0,0-.43.14,3,3,0,0,0-.31.15,2.53,2.53,0,0,0-.36.2,2.92,2.92,0,0,0-.28.21l-.25.19L258.19,54,225.84,33.29l-.13-.07-.17-.09a3.43,3.43,0,0,0-.52-.23l-.13,0a3.58,3.58,0,0,0-.65-.14l-.18,0a5.24,5.24,0,0,0-.56,0h-.14a3.75,3.75,0,0,0-.67.11l-.15.05A3.52,3.52,0,0,0,222,33l-.18.08-.09,0a4,4,0,0,0-.48.32.7.7,0,0,0-.1.08,3.45,3.45,0,0,0-.44.42.27.27,0,0,0-.08.07l-60.21,69.3a4,4,0,0,0-1,2.62v38.27l-42.63,39-13.68-5h0a4.85,4.85,0,0,0-.63-.16l-.17,0a4.65,4.65,0,0,0-.66,0h-.09a4.09,4.09,0,0,0-.6.07l-.14,0a4.48,4.48,0,0,0-.62.2l-.16.07a4.48,4.48,0,0,0-.56.32l0,0h0a3.57,3.57,0,0,0-.55.48l-.06,0L74,205.33a4,4,0,0,0-1.1,2.75v15.29L1.31,288.79h0l-.1.1-.16.16a.69.69,0,0,0-.11.13l-.06.07,0,0h0l0,.05-.11.16a1.1,1.1,0,0,0-.09.14,1.4,1.4,0,0,0-.1.16.41.41,0,0,0,0,.09h0a.36.36,0,0,0,0,.09l-.07.15a1.34,1.34,0,0,0-.07.18,1.59,1.59,0,0,0-.07.2s0,0,0,.05h0s0,.06,0,.09,0,.13,0,.2l0,.13a.22.22,0,0,0,0,.08s0,0,0,.07v.08a1.5,1.5,0,0,0,0,.22c0,.07,0,.14,0,.22v.06H0v.07c0,.07,0,.14,0,.21a1.79,1.79,0,0,0,0,.23v.07s0,.05,0,.07a.22.22,0,0,0,0,.08l0,.13c0,.07,0,.14,0,.21s0,.05,0,.08v0h0a.08.08,0,0,0,0,.05,1.59,1.59,0,0,0,.07.2,1.34,1.34,0,0,0,.07.18l.07.15a.36.36,0,0,0,0,.09v0a.35.35,0,0,1,0,.08l.1.17A1,1,0,0,0,.7,294l.11.16,0,0h0l0,0,.06.08.11.12.16.16.1.1h0l71.58,65.42v15.29a4,4,0,0,0,1.1,2.76l24.85,26.15.06.05a4.13,4.13,0,0,0,.55.47h0l.11.06a3.92,3.92,0,0,0,.53.29l.23.09a4.42,4.42,0,0,0,.48.15l.22.05a4.27,4.27,0,0,0,.71.07h0a3.39,3.39,0,0,0,.7-.07,1.34,1.34,0,0,0,.27-.07l.39-.1,13.72-5,42.63,39v38.27a4,4,0,0,0,1,2.63l60.21,69.29s.05,0,.07.06a4.81,4.81,0,0,0,.57.54l0,0a3.74,3.74,0,0,0,.42.27l.21.1.15.07a5.39,5.39,0,0,0,.68.22l.13,0a3.82,3.82,0,0,0,.75.08h0a4.21,4.21,0,0,0,.62-.05l.22,0,.41-.11.23-.09a2.76,2.76,0,0,0,.39-.18l.2-.11.08,0,32.35-20.71,57.94,53c.07.07.16.12.24.19l.29.22a3.9,3.9,0,0,0,.35.19l.32.16.42.13.31.08a3.87,3.87,0,0,0,.77.08h.5a3.94,3.94,0,0,0,2.69-1l57.72-52.75,32,20.51.08,0,.2.11a3.39,3.39,0,0,0,.39.18l.23.09.42.11.21,0a4.21,4.21,0,0,0,.62.05h0a3.82,3.82,0,0,0,.75-.08l.13,0a5.54,5.54,0,0,0,.69-.22l.15-.07c.06,0,.13-.06.2-.1a3,3,0,0,0,.42-.27l0,0a4.22,4.22,0,0,0,.58-.54l.06-.06,60.21-69.29a4,4,0,0,0,1-2.63V439.77l44.79-40.93,17.77,6.5a3,3,0,0,0,.43.11,1.55,1.55,0,0,0,.23.06,3.33,3.33,0,0,0,.7.07h0a4.39,4.39,0,0,0,.72-.07l.2-.05a3.33,3.33,0,0,0,.51-.16l.21-.08a3.59,3.59,0,0,0,.57-.32l.07,0h0a4.13,4.13,0,0,0,.55-.47l.06-.05,24.85-26.15a4,4,0,0,0,1.1-2.76V355l65.91-60.24h0l.13-.12,0,0,.09-.1.11-.12.12-.15.07-.09.06-.09.09-.13.09-.17.07-.12a.36.36,0,0,0,0-.09l.06-.13a1.34,1.34,0,0,0,.07-.18.94.94,0,0,0,.06-.15l0-.08,0-.12a1.6,1.6,0,0,0,0-.21.79.79,0,0,0,0-.13.08.08,0,0,0,0,0s0,0,0,0h0v0s0-.08,0-.11,0-.15,0-.23a1.49,1.49,0,0,0,0-.21v-.14ZM375,112.33,322.83,77.18V12.62L375,60.3Zm0,56.59-52.16-23.84V86.83L375,122Zm0,59.51-52.16-11.92V153.88L375,177.71Zm0,118.44-52.16,11.92v-63H375Zm0,58.93-52.16,23.84V367L375,355.08Zm0,55.74-52.16,35.14V438.43L375,414.59ZM262.62,295.76h52.21v62.92l-52.21-11.93Zm52.21-8H262.62v-51l52.21-11.93Zm0-71.13-52.21,11.93V178l52.21-23.86ZM262.62,355l52.21,11.92v62.53l-52.21-23.86Zm52.21-209.65-52.21,23.85V122.34l52.21-35.17Zm-52.21,269,52.21,23.85v58.15l-52.21-35.17ZM375,287.76H322.83v-63L375,236.64ZM314.83,77.52l-52.21,35.17V60.79l52.21-47.71ZM159.47,155.07v27.12l-33.35,22.47V189.39A4,4,0,0,0,125,186.6Zm0,61.24-33.35,15.24V214.3l33.35-22.47Zm0,35.82-33.35,7.62V240.34l33.35-15.24ZM72.89,234.21v6.31L46.63,258.21Zm0,21.67-26.34,12,26.34-17.74Zm0,16L41.2,279.15l31.69-14.48Zm0,46.93L41.2,304.36l31.69,7.24Zm0,14.51L46.55,315.6l26.34,12ZM39.46,295.76H72.89v7.63Zm33.43-8H39.46l33.43-7.64ZM46.63,325.3,72.89,343v6.31Zm112.84,6.08v27l-33.35-15.24V323.76Zm0,60.3-33.35-22.47V352l33.35,15.24ZM125,396.92a4,4,0,0,0,1.14-2.79V378.86l33.35,22.46v27.12Zm42.49,49.67V325l-8-1.83-36.66-8.38-3.16-.72L97.74,309v82.54L80.89,373.83V209.68L97.74,192v82.53l20.7-4.77,4.57-1,36.46-8.33,8-1.82V107.45l52.21-60.09v243.9a4.23,4.23,0,0,0,0,.5,3.85,3.85,0,0,0,0,.5V536.15l-52.21-60.09Zm95.15,24.23L314.83,506v64.45l-52.21-47.72Zm60.21,35.51L375,471.19v52l-52.16,47.67Zm87.1-210.07V539.54l-24.08-15.41L383,522.3V61l2.7-1.73,24.24-15.52V296.26ZM517.7,340.58l-39.56,18.08V331.51l39.56-9Zm0,24.81L478.14,392V367.45l39.56-18.08Zm20.38-178.24V265.7l-12.38-2.83V191.68l3.49-1.28Zm-59.94-32.57,39.56,36.15v17.74l-39.56-26.65Zm0,36.89,39.56,26.65v16l-39.56-18.08Zm0,33.39,39.56,18.07V261l-32.23-7.36-7.33-2Zm0,176.83L517.7,375v17.74l-39.56,36.15Zm47.56-10.36V320.64l12.38-2.83v78.05l-8.5-3.11Zm45.23-109.92,27.76,6.35H570.93Zm0-14.15,26,11.89-26-5.94Zm0-13.28,20.67,13.93-20.67-9.45Zm0,41.78h27.76l-27.76,6.34Zm0,14.55,26-5.95-26,11.89Zm0,14.74,20.68-9.45-20.68,13.93Zm20.59-66.84-20.59-13.87v-5Zm-20.59,85.91v-4.95l20.59-13.87Z"/></g></g></svg>