<?xml version="1.0" encoding="utf-8"?>
<!-- Generator: Adobe Illustrator 24.0.1, SVG Export Plug-In . SVG Version: 6.00 Build 0)  -->
<svg version="1.1" id="Layer_1" xmlns="http://www.w3.org/2000/svg" xmlns:xlink="http://www.w3.org/1999/xlink" x="0px" y="0px"
	 viewBox="0 0 638.2 583.5" style="enable-background:new 0 0 638.2 583.5;" xml:space="preserve">
<style type="text/css">
	.st0{fill:none;}
	.st1{fill:url(#SVGID_1_);}
</style>
<title>hh-logo-black-small</title>
<g id="Layer_2_1_">
	<g id="Layer_4">
		<polygon class="st0" points="97.7,339 97.7,330.2 80.9,322.5 80.9,331.3 		"/>
		<polygon class="st0" points="97.7,233.4 97.7,223.8 80.9,235.1 80.9,244.8 		"/>
		<polygon class="st0" points="80.9,252.2 80.9,261 97.7,253.3 97.7,244.5 		"/>
		<polygon class="st0" points="538.1,198.5 529.2,190.4 525.7,191.7 525.7,198 538.1,209.4 		"/>
		<path class="st0" d="M219.7,483.5V292.3c0-0.2,0-0.3,0-0.5c0-0.2,0-0.3,0-0.5V47.4l-52.2,60.1v151.1l-8,1.8l-36.5,8.3l-4.6,1
			l-20.7,4.8v-8.3L80.9,270v43.4l16.8,3.9V309l21.9,5l3.2,0.7l36.7,8.4l8,1.8v151.1l52.2,60.1L219.7,483.5L219.7,483.5z"/>
		<polygon class="st0" points="525.7,360 525.7,369.6 538.1,361.3 538.1,351.7 		"/>
		<polygon class="st0" points="97.7,200.7 80.9,216.1 80.9,226.9 97.7,211.5 		"/>
		<polygon class="st0" points="80.9,338.7 80.9,348.4 97.7,359.7 97.7,350.1 		"/>
		<polygon class="st0" points="97.7,372 80.9,356.6 80.9,367.5 97.7,382.9 		"/>
		<polygon class="st0" points="538.1,252.3 538.1,243.4 525.7,237.8 525.7,246.6 		"/>
		<polygon class="st0" points="538.1,231.9 538.1,222.2 525.7,213.9 525.7,223.5 		"/>
		<polygon class="st0" points="525.7,385.5 525.7,391.3 529.6,392.8 538.1,385 538.1,374.1 		"/>
		<polygon class="st0" points="525.7,336.9 525.7,345.7 538.1,340.1 538.1,331.3 		"/>
		<polygon class="st0" points="314.8,154.1 262.6,178 262.6,228.6 314.8,216.6 		"/>
		<polygon class="st0" points="262.6,470.8 262.6,522.7 314.8,570.4 314.8,506 		"/>
		<polygon class="st0" points="80.9,331.3 80.9,338.7 97.7,350.1 97.7,339 		"/>
		<polygon class="st0" points="97.7,191.9 80.9,209.7 80.9,216.1 97.7,200.7 		"/>
		<polygon class="st0" points="97.7,330.2 97.7,319.5 97.7,317.3 80.9,313.4 80.9,322.5 		"/>
		<path class="st0" d="M126.1,204.7l33.3-22.5v-27.1L125,186.6c0.7,0.7,1.1,1.7,1.1,2.8L126.1,204.7z"/>
		<polygon class="st0" points="46.5,315.6 72.9,333.4 72.9,327.6 		"/>
		<polygon class="st0" points="570.9,344.1 591.5,325.3 570.9,339.2 		"/>
		<polygon class="st0" points="570.9,302.1 598.7,295.8 570.9,295.8 		"/>
		<polygon class="st0" points="159.5,358.4 159.5,331.4 126.1,323.8 126.1,343.2 		"/>
		<polygon class="st0" points="72.9,303.4 72.9,295.8 39.5,295.8 		"/>
		<polygon class="st0" points="375,112.3 375,60.3 322.8,12.6 322.8,77.2 		"/>
		<polygon class="st0" points="72.9,318.8 72.9,311.6 41.2,304.4 		"/>
		<polygon class="st0" points="126.1,259.8 159.5,252.1 159.5,225.1 126.1,240.3 		"/>
		<polygon class="st0" points="314.8,77.5 314.8,13.1 262.6,60.8 262.6,112.7 		"/>
		<polygon class="st0" points="72.9,234.2 46.6,258.2 72.9,240.5 		"/>
		<polygon class="st0" points="517.7,234.1 517.7,218.1 478.1,191.5 478.1,216.1 		"/>
		<polygon class="st0" points="375,295.8 322.8,295.8 322.8,358.8 375,346.9 		"/>
		<polygon class="st0" points="538.1,243.4 538.1,231.9 525.7,223.5 525.7,237.8 		"/>
		<path class="st0" d="M126.1,378.9v15.3c0,1-0.4,2-1.1,2.8l34.5,31.5v-27.1L126.1,378.9z"/>
		<polygon class="st0" points="322.8,506.3 322.8,570.9 375,523.2 375,471.2 		"/>
		<polygon class="st0" points="72.9,250.2 46.5,267.9 72.9,255.9 		"/>
		<polygon class="st0" points="538.1,361.3 525.7,369.6 525.7,385.5 538.1,374.1 		"/>
		<polygon class="st0" points="478.1,401.7 478.1,428.9 517.7,392.8 517.7,375 		"/>
		<polygon class="st0" points="46.6,325.3 72.9,349.3 72.9,343 		"/>
		<polygon class="st0" points="525.7,345.7 525.7,360 538.1,351.7 538.1,340.1 		"/>
		<polygon class="st0" points="97.7,223.8 97.7,211.5 80.9,226.9 80.9,235.1 		"/>
		<polygon class="st0" points="126.1,369.2 159.5,391.7 159.5,367.2 126.1,352 		"/>
		<polygon class="st0" points="314.8,358.7 314.8,295.8 262.6,295.8 262.6,346.8 		"/>
		<polygon class="st0" points="80.9,367.5 80.9,373.8 97.7,391.6 97.7,382.9 		"/>
		<polygon class="st0" points="570.9,316.3 597,304.4 570.9,310.3 		"/>
		<polygon class="st0" points="97.7,359.7 80.9,348.4 80.9,356.6 97.7,372 		"/>
		<polygon class="st0" points="525.7,320.6 525.7,336.9 538.1,331.3 538.1,317.8 		"/>
		<polygon class="st0" points="262.6,414.4 262.6,461.2 314.8,496.4 314.8,438.2 		"/>
		<polygon class="st0" points="591.5,258.2 570.9,239.4 570.9,244.3 		"/>
		<polygon class="st0" points="126.1,231.6 159.5,216.3 159.5,191.8 126.1,214.3 		"/>
		<polygon class="st0" points="570.9,273.2 597,279.1 570.9,267.3 		"/>
		<polygon class="st0" points="97.7,233.4 80.9,244.8 80.9,252.2 97.7,244.5 		"/>
		<polygon class="st0" points="591.6,267.9 570.9,254 570.9,258.5 		"/>
		<polygon class="st0" points="322.8,438.4 322.8,496.7 375,461.5 375,414.6 		"/>
		<polygon class="st0" points="538.1,395.9 538.1,385 529.6,392.8 		"/>
		<polygon class="st0" points="538.1,222.2 538.1,209.4 525.7,198 525.7,213.9 		"/>
		<polygon class="st0" points="538.1,265.7 538.1,252.3 525.7,246.6 525.7,262.9 		"/>
		<polygon class="st0" points="375,228.4 375,177.7 322.8,153.9 322.8,216.5 		"/>
		<polygon class="st0" points="517.7,208.5 517.7,190.7 478.1,154.6 478.1,181.8 		"/>
		<polygon class="st0" points="485.5,253.7 517.7,261 517.7,242.9 478.1,224.9 478.1,251.6 		"/>
		<polygon class="st0" points="375,236.6 322.8,224.7 322.8,287.8 375,287.8 		"/>
		<polygon class="st0" points="570.9,329.5 591.6,315.6 570.9,325 		"/>
		<polygon class="st0" points="262.6,236.8 262.6,287.8 314.8,287.8 314.8,224.8 		"/>
		<polygon class="st0" points="375,168.9 375,122 322.8,86.8 322.8,145.1 		"/>
		<polygon class="st0" points="314.8,145.3 314.8,87.2 262.6,122.3 262.6,169.2 		"/>
		<polygon class="st0" points="97.7,253.3 80.9,261 80.9,270.1 97.7,266.2 97.7,264 		"/>
		<polygon class="st0" points="322.8,367 322.8,429.6 375,405.8 375,355.1 		"/>
		<polygon class="st0" points="72.9,287.8 72.9,280.1 39.5,287.8 		"/>
		<polygon class="st0" points="538.1,187.1 529.2,190.4 538.1,198.5 		"/>
		<polygon class="st0" points="478.1,331.5 478.1,358.7 517.7,340.6 517.7,322.5 		"/>
		<polygon class="st0" points="478.1,367.5 478.1,392 517.7,365.4 517.7,349.4 		"/>
		<polygon class="st0" points="262.6,355 262.6,405.5 314.8,429.4 314.8,366.9 		"/>
		<polygon class="st0" points="72.9,271.9 72.9,264.7 41.2,279.1 		"/>
		<polygon class="st0" points="570.9,287.8 598.7,287.8 570.9,281.4 		"/>
		<linearGradient id="SVGID_1_" gradientUnits="userSpaceOnUse" x1="101.8831" y1="104.2765" x2="580.3819" y2="517.5255">
			<stop  offset="0" style="stop-color:#E5D584"/>
			<stop  offset="1" style="stop-color:#876B2E"/>
		</linearGradient>
		<path class="st1" d="M638.2,291.7v-0.1c0,0,0-0.1,0-0.1c0-0.1,0-0.1,0-0.2v-0.1c0,0,0-0.1,0-0.1l0,0c0,0,0-0.1,0-0.1
			c0-0.1,0-0.1,0-0.2c0-0.1,0-0.1,0-0.1c0,0,0-0.1,0-0.1v-0.1l-0.1-0.1c0-0.1,0-0.1-0.1-0.1c0,0,0-0.1-0.1-0.1l-0.1-0.1l-0.1-0.1
			l-0.1-0.1l-0.1-0.2l-0.1-0.1l0,0l-0.1-0.1l-0.1-0.1l-0.1-0.1l0,0l0,0l-0.1-0.1l0,0l0,0l-65.9-60.2v-21c0-1-0.4-2-1.1-2.8
			L545,178.7l-0.1-0.1c-0.1-0.1-0.2-0.2-0.3-0.3l-0.2-0.1l-0.1-0.1l-0.2-0.1l-0.2-0.1l-0.5-0.2h-0.1c-0.1-0.1-0.3-0.1-0.4-0.1h-0.2
			c-0.1,0-0.3,0-0.4-0.1h-0.7c-0.2,0-0.4,0-0.5,0.1l0,0l-0.5,0.1l-18.2,6.6l-44.4-40.6v-38c0-1-0.4-1.9-1-2.6L417,33.8
			c0,0,0,0-0.1-0.1c-0.1-0.2-0.3-0.3-0.5-0.4l-0.1-0.1c-0.2-0.1-0.3-0.2-0.5-0.3h-0.1l-0.2-0.1c-0.2-0.1-0.3-0.1-0.5-0.2l-0.2,0
			c-0.2-0.1-0.4-0.1-0.7-0.1h-0.1c-0.2,0-0.4,0-0.6,0h-0.2c-0.2,0-0.4,0.1-0.6,0.1h-0.1c-0.2,0.1-0.4,0.1-0.5,0.2l-0.2,0.1l-0.1,0.1
			l-32.2,20.7L322,1c-0.7-0.7-1.7-1-2.7-1h-0.5c-0.3,0-0.5,0-0.8,0.1l-0.3,0.1c-0.1,0-0.3,0.1-0.4,0.1c-0.1,0-0.2,0.1-0.3,0.2
			c-0.1,0.1-0.2,0.1-0.4,0.2c-0.1,0.1-0.2,0.1-0.3,0.2l-0.3,0.2L258.2,54l-32.4-20.7l-0.1-0.1l-0.2-0.1c-0.2-0.1-0.3-0.2-0.5-0.2
			h-0.1c-0.2-0.1-0.4-0.1-0.6-0.1h-0.2c-0.2,0-0.4,0-0.6,0h-0.1c-0.2,0-0.5,0.1-0.7,0.1l-0.1,0c-0.2,0-0.4,0-0.5,0.1l-0.2,0.1h-0.1
			c-0.2,0.1-0.3,0.2-0.5,0.3c0,0-0.1,0.1-0.1,0.1c-0.2,0.1-0.3,0.3-0.4,0.4c0,0-0.1,0-0.1,0.1l-60.2,69.3c-0.6,0.7-1,1.7-1,2.6v38.3
			l-42.6,39l-13.7-5l0,0c-0.2-0.1-0.4-0.1-0.6-0.2h-0.2c-0.2,0-0.4,0-0.7,0h-0.1c-0.2,0-0.4,0-0.6,0.1h-0.1
			c-0.2,0.1-0.4,0.1-0.6,0.2l-0.2,0.1c-0.2,0.1-0.4,0.2-0.6,0.3l0,0l0,0c-0.2,0.1-0.4,0.3-0.6,0.5h-0.1L74,205.3
			c-0.7,0.7-1.1,1.7-1.1,2.8v15.3L1.3,288.8l0,0l-0.1,0.1L1,289.1c0,0-0.1,0.1-0.1,0.1l-0.1,0.1l0,0l0,0v0l-0.1,0.2
			c0,0-0.1,0.1-0.1,0.1c0,0.1-0.1,0.1-0.1,0.2c0,0,0,0.1,0,0.1l0,0c0,0,0,0.1,0,0.1l-0.1,0.1c0,0.1-0.1,0.1-0.1,0.2
			c0,0.1-0.1,0.1-0.1,0.2c0,0,0,0,0,0l0,0c0,0,0,0.1,0,0.1s0,0.1,0,0.2v0.1c0,0,0,0.1,0,0.1c0,0,0,0,0,0.1v0.1c0,0.1,0,0.1,0,0.2
			c0,0.1,0,0.1,0,0.2v0.1H0v0.1c0,0.1,0,0.1,0,0.2c0,0.1,0,0.2,0,0.2v0.1c0,0,0,0,0,0.1c0,0,0,0.1,0,0.1v0.1c0,0.1,0,0.1,0,0.2
			s0,0,0,0.1l0,0l0,0c0,0,0,0,0,0c0,0.1,0,0.1,0.1,0.2c0,0.1,0,0.1,0.1,0.2l0.1,0.1c0,0,0,0.1,0,0.1l0,0c0,0,0,0.1,0,0.1l0.1,0.2
			c0.1,0.1,0.2,0.2,0.4,0.3l0.1,0.2l0,0l0,0l0,0l0.1,0.1l0.1,0.1l0.2,0.2l0.1,0.1l0,0L72.8,360v15.3c0,1,0.4,2,1.1,2.8l24.8,26.1
			l0.1,0c0.2,0.2,0.4,0.3,0.6,0.5l0,0l0.1,0.1c0.2,0.1,0.3,0.2,0.5,0.3l0.2,0.1c0.2,0.1,0.3,0.1,0.5,0.1l0.2,0
			c0.2,0,0.5,0.1,0.7,0.1l0,0c0.2,0,0.5,0,0.7-0.1c0.1,0,0.2,0,0.3-0.1l0.4-0.1l13.7-5l42.6,39v38.3c0,1,0.4,1.9,1,2.6l60.2,69.3
			c0,0,0.1,0,0.1,0.1c0.2,0.2,0.4,0.4,0.6,0.5l0,0c0.1,0.1,0.3,0.2,0.4,0.3l0.2,0.1l0.1,0.1c0.2,0.1,0.4,0.2,0.7,0.2h0.1
			c0.2,0.1,0.5,0.1,0.8,0.1l0,0c0.2,0,0.4,0,0.6,0h0.2l0.4-0.1l0.2-0.1c0.1,0,0.3-0.1,0.4-0.2l0.2-0.1h0.1l32.4-20.7l57.9,53
			c0.1,0.1,0.2,0.1,0.2,0.2l0.3,0.2c0.1,0.1,0.2,0.1,0.4,0.2l0.3,0.2l0.4,0.1l0.3,0.1c0.3,0.1,0.5,0.1,0.8,0.1h0.5c1,0,2-0.3,2.7-1
			l57.7-52.8l32,20.5h0.1l0.2,0.1c0.1,0.1,0.3,0.1,0.4,0.2l0.2,0.1l0.4,0.1h0.2c0.2,0,0.4,0,0.6,0l0,0c0.3,0,0.5,0,0.8-0.1h0.1
			c0.2-0.1,0.5-0.1,0.7-0.2l0.1-0.1c0.1,0,0.1-0.1,0.2-0.1c0.1-0.1,0.3-0.2,0.4-0.3l0,0c0.2-0.2,0.4-0.3,0.6-0.5l0.1-0.1l60.2-69.3
			c0.6-0.7,1-1.7,1-2.6v-37.8l44.8-40.9l17.8,6.5c0.1,0,0.3,0.1,0.4,0.1c0.1,0,0.2,0,0.2,0.1c0.2,0,0.5,0.1,0.7,0.1l0,0
			c0.2,0,0.5,0,0.7-0.1l0.2,0c0.2,0,0.3-0.1,0.5-0.2l0.2-0.1c0.2-0.1,0.4-0.2,0.6-0.3h0.1l0,0c0.2-0.1,0.4-0.3,0.5-0.5l0.1,0
			l24.8-26.1c0.7-0.7,1.1-1.7,1.1-2.8V355l65.9-60.2l0,0l0.1-0.1l0,0l0.1-0.1l0.1-0.1l0.1-0.1l0.1-0.1l0.1-0.1l0.1-0.1l0.1-0.2
			l0.1-0.1c0,0,0-0.1,0-0.1l0.1-0.1c0-0.1,0.1-0.1,0.1-0.2c0,0,0-0.1,0.1-0.1V293v-0.1c0-0.1,0-0.1,0-0.2c0,0,0-0.1,0-0.1l0,0l0,0
			l0,0l0,0c0,0,0-0.1,0-0.1s0-0.1,0-0.2c0-0.1,0-0.1,0-0.2v-0.1L638.2,291.7z M375,112.3l-52.2-35.2V12.6L375,60.3V112.3z
			 M375,168.9l-52.2-23.8V86.8L375,122V168.9z M375,228.4l-52.2-11.9v-62.6l52.2,23.8V228.4z M375,346.9l-52.2,11.9v-63H375V346.9z
			 M375,405.8l-52.2,23.8V367l52.2-11.9V405.8z M375,461.5l-52.2,35.1v-58.3l52.2-23.8V461.5z M262.6,295.8h52.2v62.9l-52.2-11.9
			V295.8z M314.8,287.8h-52.2v-51l52.2-11.9V287.8z M314.8,216.6l-52.2,11.9V178l52.2-23.9V216.6z M262.6,355l52.2,11.9v62.5
			l-52.2-23.9V355z M314.8,145.4l-52.2,23.9v-46.9l52.2-35.2V145.4z M262.6,414.4l52.2,23.9v58.1l-52.2-35.2V414.4z M375,287.8
			h-52.2v-63l52.2,11.9V287.8z M314.8,77.5l-52.2,35.2V60.8l52.2-47.7V77.5z M159.5,155.1v27.1l-33.3,22.5v-15.3c0-1-0.4-2-1.1-2.8
			L159.5,155.1z M159.5,216.3l-33.3,15.2v-17.3l33.3-22.5V216.3z M159.5,252.1l-33.3,7.6v-19.4l33.3-15.2V252.1z M72.9,234.2v6.3
			l-26.3,17.7L72.9,234.2z M72.9,255.9l-26.3,12l26.3-17.7V255.9z M72.9,271.9l-31.7,7.3l31.7-14.5V271.9z M72.9,318.8l-31.7-14.5
			l31.7,7.2V318.8z M72.9,333.3l-26.3-17.7l26.3,12V333.3z M39.5,295.8h33.4v7.6L39.5,295.8z M72.9,287.8H39.5l33.4-7.6V287.8z
			 M46.6,325.3L72.9,343v6.3L46.6,325.3z M159.5,331.4v27l-33.3-15.2v-19.4L159.5,331.4z M159.5,391.7l-33.3-22.5V352l33.3,15.2
			V391.7z M125,396.9c0.7-0.7,1.1-1.7,1.1-2.8v-15.3l33.3,22.5v27.1L125,396.9z M167.5,446.6V325l-8-1.8l-36.7-8.4l-3.2-0.7
			L97.7,309v82.5l-16.8-17.7V209.7L97.7,192v82.5l20.7-4.8l4.6-1l36.5-8.3l8-1.8V107.4l52.2-60.1v243.9c0,0.2,0,0.3,0,0.5
			c0,0.2,0,0.3,0,0.5v243.9l-52.2-60.1L167.5,446.6z M262.6,470.8l52.2,35.2v64.5l-52.2-47.7L262.6,470.8z M322.9,506.3l52.1-35.1
			v52l-52.2,47.7L322.9,506.3z M410,296.3v243.3l-24.1-15.4l-2.9-1.8V61l2.7-1.7l24.2-15.5L410,296.3L410,296.3z M517.7,340.6
			l-39.6,18.1v-27.1l39.6-9V340.6z M517.7,365.4L478.1,392v-24.5l39.6-18.1V365.4z M538.1,187.1v78.6l-12.4-2.8v-71.2l3.5-1.3
			L538.1,187.1z M478.1,154.6l39.6,36.1v17.7l-39.6-26.6V154.6z M478.1,191.5l39.6,26.6v16L478.1,216V191.5z M478.1,224.9l39.6,18.1
			V261l-32.2-7.4l-7.3-2V224.9z M478.1,401.7l39.6-26.7v17.7l-39.6,36.1V401.7z M525.7,391.3v-70.7l12.4-2.8v78.1l-8.5-3.1
			L525.7,391.3z M570.9,281.4l27.8,6.4h-27.8V281.4z M570.9,267.3l26,11.9l-26-5.9V267.3z M570.9,254l20.7,13.9l-20.7-9.5V254z
			 M570.9,295.8h27.8l-27.8,6.3V295.8z M570.9,310.3l26-6l-26,11.9V310.3z M570.9,325.1l20.7-9.5l-20.7,13.9V325.1z M591.5,258.2
			l-20.6-13.9v-5L591.5,258.2z M570.9,344.1v-5l20.6-13.9L570.9,344.1z"/>
	</g>
</g>
</svg>
